<?xml version="1.0" standalone="no"?>
<!DOCTYPE svg PUBLIC "-//W3C//DTD SVG 1.1//EN" "http://www.w3.org/Graphics/SVG/1.1/DTD/svg11.dtd">
<svg xmlns="http://www.w3.org/2000/svg">
<metadata>Copyright (C) 2016 by original authors @ fontello.com</metadata>
<defs>
<font id="iconic" horiz-adv-x="1000" >
<font-face font-family="iconic" font-weight="400" font-stretch="normal" units-per-em="1000" ascent="850" descent="-150" />
<missing-glyph horiz-adv-x="1000" />
<glyph glyph-name="toggle-off" unicode="&#xe800;" d="M643 350q0 58-23 111t-61 91-91 61-111 23-111-23-91-61-61-91-23-111 23-111 61-91 91-61 111-23 111 23 91 61 61 91 23 111z m428 0q0 58-22 111t-61 91-92 61-110 23h-216q67-51 106-125t38-161-38-161-106-125h216q58 0 110 23t92 61 61 91 22 111z m72 0q0-73-29-139t-76-113-114-77-138-28h-429q-72 0-138 28t-114 77-76 113-29 139 29 139 76 114 114 76 138 28h429q72 0 138-28t114-76 76-114 29-139z" horiz-adv-x="1142.9" />

<glyph glyph-name="left-open" unicode="&#xe801;" d="M0 350l148 149 352 351 148-148-351-352 351-352-148-148-352 352z" horiz-adv-x="648" />

<glyph glyph-name="toggle-on" unicode="&#xe802;" d="M0 350q0 73 29 139t76 114 114 76 138 28h429q72 0 138-28t114-76 76-114 29-139-29-139-76-113-114-77-138-28h-429q-72 0-138 28t-114 77-76 113-29 139z m786-286q58 0 110 23t92 61 61 91 22 111-22 111-61 91-92 61-110 23-111-23-91-61-61-91-23-111 23-111 61-91 91-61 111-23z" horiz-adv-x="1142.9" />

<glyph glyph-name="left-open-1" unicode="&#xe803;" d="M653 682l-296-296 296-297q11-10 11-25t-11-25l-92-93q-11-10-25-10t-25 10l-414 415q-11 10-11 25t11 25l414 414q10 10 25 10t25-10l92-93q11-10 11-25t-11-25z" horiz-adv-x="714.3" />

<glyph glyph-name="right-open-1" unicode="&#xe804;" d="M618 361l-414-415q-11-10-25-10t-26 10l-92 93q-11 11-11 25t11 25l296 297-296 296q-11 11-11 25t11 25l92 93q11 10 26 10t25-10l414-414q10-11 10-25t-10-25z" horiz-adv-x="714.3" />

<glyph glyph-name="down-open" unicode="&#xe805;" d="M939 399l-414-413q-10-11-25-11t-25 11l-414 413q-11 11-11 26t11 25l92 92q11 11 26 11t25-11l296-296 296 296q11 11 25 11t26-11l92-92q11-11 11-25t-11-26z" horiz-adv-x="1000" />

<glyph glyph-name="up-open" unicode="&#xe806;" d="M939 107l-92-92q-11-10-26-10t-25 10l-296 297-296-297q-11-10-25-10t-26 10l-92 92q-11 11-11 26t11 25l414 414q11 10 25 10t25-10l414-414q11-11 11-25t-11-26z" horiz-adv-x="1000" />

<glyph glyph-name="star" unicode="&#xe807;" d="M929 489q0-12-15-27l-203-197 48-279q1-4 1-12 0-11-6-19t-17-9q-10 0-22 7l-251 132-250-132q-13-7-23-7-11 0-17 9t-6 19q0 4 1 12l48 279-203 197q-14 15-14 27 0 21 31 26l280 40 126 254q11 23 27 23t28-23l125-254 280-40q32-5 32-26z" horiz-adv-x="928.6" />

<glyph glyph-name="star-empty" unicode="&#xe808;" d="M634 290l171 165-235 35-106 213-105-213-236-35 171-165-41-235 211 111 211-111z m295 199q0-12-15-27l-203-197 48-279q1-4 1-12 0-28-23-28-10 0-22 7l-251 132-250-132q-13-7-23-7-11 0-17 9t-6 19q0 4 1 12l48 279-203 197q-14 15-14 27 0 21 31 26l280 40 126 254q11 23 27 23t28-23l125-254 280-40q32-5 32-26z" horiz-adv-x="928.6" />

<glyph glyph-name="star-half-alt" unicode="&#xe809;" d="M662 316l143 139-198 29-37 6-17 34-89 179v-537l33-17 178-94-34 198-7 37z m252 146l-202-197 47-279q3-19-3-29t-19-11q-9 0-22 7l-251 132-250-132q-13-7-23-7-12 0-19 11t-3 29l48 279-203 197q-18 18-13 33t30 20l280 40 126 254q11 23 27 23 16 0 28-23l125-254 280-40q25-4 30-20t-13-33z" horiz-adv-x="928.6" />

<glyph glyph-name="download" unicode="&#xe80a;" d="M693 495h-118v355h-237v-355h-118l236-355z m-601-586a56 56 0 0 0-16-43 62 62 0 0 0-44-14h-32v112h35a58 58 0 0 0 42-14 54 54 0 0 0 15-41z m-20-1q0 41-38 41h-16v-82h14q40 0 40 41z m143 0a62 62 0 0 0-13-43 50 50 0 0 0-39-15 50 50 0 0 0-40 15 62 62 0 0 0-13 43 61 61 0 0 0 13 43 51 51 0 0 0 40 15 50 50 0 0 0 39-15 62 62 0 0 0 13-43z m-86 0a51 51 0 0 1 9-31 30 30 0 0 1 25-11 30 30 0 0 1 24 11 64 64 0 0 1 0 63 29 29 0 0 1-24 10 30 30 0 0 1-25-10 50 50 0 0 1-8-32z m214-56h-19l-19 67q-1 4-3 13c-2 5-2 9-3 12q0-5-2-13t-3-12l-19-68h-20l-14 57-15 56h19l16-66a284 284 0 0 0 5-28q1 7 3 15t3 13l18 66h19l18-66a247 247 0 0 0 6-28 201 201 0 0 0 6 28l16 66h18z m140 0h-22l-56 89h-1l0-5q2-14 2-26v-59h-17v113h22l56-89h0q0 2-1 13t1 17v59h16v-113z m29 0v112h19v-97h48v-16h-66z m186 56a62 62 0 0 0-14-43 58 58 0 0 0-78 0 62 62 0 0 0-14 44 61 61 0 0 0 14 42 51 51 0 0 0 40 15 50 50 0 0 0 39-15 62 62 0 0 0 13-43z m-86 0a51 51 0 0 1 8-31 34 34 0 0 1 50 0 64 64 0 0 1 0 63 29 29 0 0 1-25 10 30 30 0 0 1-25-10 50 50 0 0 1-8-32z m180-56l-11 31h-43l-11-32h-19l42 114h20l42-113h-20z m-16 47l-10 30q-2 3-4 10c-1 4-2 7-2 9a173 173 0 0 0-6-20l-11-29h33z m142 10a56 56 0 0 0-15-43 62 62 0 0 0-45-14h-31v112h34a58 58 0 0 0 42-14 54 54 0 0 0 15-41z m-19-1q0 41-38 41h-16v-82h13q41 0 41 41z" horiz-adv-x="918" />

<glyph glyph-name="uoload" unicode="&#xe80b;" d="M67 495h119v-355h236v355h119l-237 355z m21-533v-71a43 43 0 0 0-5-22 35 35 0 0 0-15-14 53 53 0 0 0-24-5 45 45 0 0 0-33 11 40 40 0 0 0-12 30v72h19v-70a28 28 0 0 1 6-21 26 26 0 0 1 20-6 24 24 0 0 1 26 27v70h18z m102-34a32 32 0 0 0-12-26 50 50 0 0 0-31-9h-12v-42h-19v112h32a48 48 0 0 0 32-9 31 31 0 0 0 10-26z m-55-20h9a35 35 0 0 1 21 5 18 18 0 0 1 6 15 17 17 0 0 1-5 15 29 29 0 0 1-19 4h-12v-39z m77-57v112h18v-96h47v-16h-65z m183 56a61 61 0 0 0-14-42 49 49 0 0 0-38-15 49 49 0 0 0-39 15 61 61 0 0 0-13 42 60 60 0 0 0 13 43 50 50 0 0 0 39 14 49 49 0 0 0 39-15 61 61 0 0 0 13-42z m-85 0a50 50 0 0 1 9-31 34 34 0 0 1 48 0 63 63 0 0 1 0 62 29 29 0 0 1-23 11 29 29 0 0 1-25-11 49 49 0 0 1-9-31z m178-56l-11 31h-43l-11-31h-19l42 112h19l42-112h-19z m-16 47l-10 30q-2 3-3 10t-3 10a169 169 0 0 0-6-21l-10-29h32z m140 10a55 55 0 0 0-15-42 61 61 0 0 0-44-14h-31v111h35a57 57 0 0 0 41-15 53 53 0 0 0 14-40z m-19-1q0 40-37 40h-16v-80h13q40 0 40 40z" horiz-adv-x="612" />

<glyph glyph-name="clock" unicode="&#xe80c;" d="M429 350c0-43 35-79 79-79 30 0 56 18 69 43l0 0 144 259-252-155 0 0c-24-13-40-39-40-68z m395 374c-80 71-184 116-303 122v-119c99-6 157-38 216-87l87 84z m56-337h119c-8 119-54 217-126 297l-85-84c51-58 85-134 92-213z m1-59c-13-198-177-355-378-355-208 0-384 169-384 378 0 198 164 361 342 376v119c-257-15-461-232-461-496 0-274 226-496 500-496 266 0 487 216 500 474h-119z" horiz-adv-x="1000" />

<glyph glyph-name="cross" unicode="&#xe80d;" d="M946 420h-376v376c0 17-23 54-70 54s-70-37-70-54v-376h-376c-17 0-54-23-54-70s37-70 54-70h376v-376c0-17 24-54 70-54s70 37 70 54v376h376c17 0 54 24 54 70s-37 70-54 70z" horiz-adv-x="1000" />

<glyph glyph-name="dislike" unicode="&#xe80e;" d="M957 530c4 11 8 25 9 42 1 29-6 71-48 108 3 20 3 50-14 80-22 41-66 68-130 81-43 10-99 11-167 6-138 3-272-14-279-15l-49-6c-15 10-32 16-51 16h-127c-48 0-87-39-87-87v-340c0-48 39-87 87-87h127c16 0 30 4 42 11 9-20 22-42 41-62 1-1 2-2 3-3 66-50 143-232 171-306-3-23-6-73 17-100 10-12 25-18 41-18 16 0 71 4 106 52 33 45 35 113 5 203-24 74-27 108-26 121 12-2 23-5 33-7h1c1 0 47-10 102-13 79-4 135 10 168 40 46 42 41 95 27 129 12 15 26 40 27 72 1 29-9 57-29 83z m-729-146h-127c-17 0-31 14-31 31v340c0 17 14 30 31 30h127c17 0 31-14 31-30v-340c0-17-14-31-31-31z m673-20c0 0 8-12 10-27 3-20-2-36-17-49-40-37-155-28-219-14-1 0-2 0-3 1-11 2-24 4-36 7-14 5-32 4-46-8-28-25-24-81 11-187 23-70 23-123 2-153-18-24-48-28-59-28-5 9-6 37-3 61 1 4 1 9-1 14-4 11-96 262-190 336-24 27-35 58-39 72 3 8 4 17 4 26v340c0 6 0 12-1 18l21 3h0c1 0 137 17 272 15 1 0 2 0 3 0 63 5 114 3 152-5 47-10 78-28 92-53 15-25 7-52 6-54-4-12 0-25 10-32 62-47 33-101 30-108-7-11-6-24 3-34 18-19 27-37 26-56 0-27-21-48-23-49-10-9-12-24-5-36z" horiz-adv-x="1000" />

<glyph glyph-name="dollar-symbol" unicode="&#xe80f;" d="M639 396c-39 21-81 38-122 55-24 10-47 22-67 38-40 32-32 83 14 104 13 5 27 7 41 8 54 3 106-7 155-30 24-12 32-9 40 17 9 27 16 54 24 81 6 18-1 30-18 38-31 14-64 24-97 29-45 7-45 7-45 51 0 63 0 63-63 63-9 0-18 0-27 0-29-1-34-6-35-36-1-13 0-26 0-39-1-40-1-39-38-53-91-33-147-95-153-194-6-88 40-147 112-190 45-27 94-42 141-63 18-8 36-18 51-30 45-38 37-100-17-123-28-13-59-16-90-12-48 6-94 18-138 41-25 13-32 10-41-18-8-24-14-48-21-72-9-32-5-39 25-55 40-19 82-28 124-35 34-6 35-7 35-42 0-15 0-31 1-47 0-20 9-31 30-32 23 0 46 0 69 0 19 1 29 11 29 30 0 22 1 44 0 65-1 22 9 33 30 39 48 13 90 39 122 78 88 107 54 265-71 334z" horiz-adv-x="1000" />

<glyph glyph-name="globe" unicode="&#xe810;" d="M500 850c-276 0-500-224-500-500 0-276 224-500 500-500 276 0 500 224 500 500 0 276-224 500-500 500z m-96-179l23-7v31l9 9 10-19 19-23-8-10-30-7v18l-23-18-7 11 7 15z m-360-310c2 97 35 186 88 259 2 0 4-1 4-1 0-7-10-8 0-25 12-23 1-33 1-33s-29-21-34-24c-5-4-19-23-11-17 9 5 19 10 11-4-9-14-24-36-28-45-3-8-20-29-20-39s-7-31-6-40c2-6-2-24-5-31z m178-287l-7-26 7-21c0 0-11-8-18-8-6 0-8-4-15-3-66 62-113 142-134 232 2 0 5-2 10-6 6-5 10-8 19-12 8-3 12-8 22-13 11-6 7-2 21-18 14-15 12-15 15-24 4-8 9-17 12-22s14-9 19-12 14-7 19-7c5 0 21-16 30-17 8-2 8-19 8-19l-8-24z m68 664c-22-24-17-17-22-24s-3-9-15-17c-12-9-18-19-18-19l-19-7-15 7c0 0-14-5-12 2 0 1 1 3 2 5 42 39 91 70 146 91-6-7-12-14-12-14s-12 0-35-24z m526-618c-2-7-6-19-7-26s-11-20-16-24c-5-3-14-14-19-15s-8 12-7 19c2 7 11 26 11 26s1 10 3 17c2 7 23 15 23 15l13 26c0 0 2-7 2-12 0-5-2-19-3-26z m5 162c-4-5-14-19-19-26s-12-17-23-26c-10-8-10-17-15-24-5-7-12-22-12-22s3-35 5-41c2-7-12-26-12-26l-16-16-20-27 1-26c0 0-15-12-24-19-8-7-7-12-14-19-7-7-25-19-32-21-7-1-36-6-36-6v15l-10 17c0 0-9 21-14 28-6 7-6 17-14 26-9 8-13 15-15 20-1 5 2 21 2 21s6 19 10 26c3 7 0 17-4 24-3 7-5 24-5 29 0 5-14 14-19 19-5 5-4 12-4 19 0 7-5 22-3 34 2 12-15 4-26 0-10-3-17 4-17 14 0 11-19 2-31-5-12-7-26-7-40-12-13-5-20 5-20 5s-12 11-21 16c-9 5-17 15-24 24-7 9-24 34-26 45-2 10 0 17 0 29 0 12 0 19 2 27 2 9 7 19 12 28 5 9 24 19 29 22 5 4 17 14 17 21 0 7 7 10 11 17 3 7 15 24 31 17 0 0 13 2 19 4 5 2 19 7 25 10 7 4 24 5 24 5s14-5 19-5 22 3 22 3 8-25 8-30 5-11 14-14c8-3 48-12 65 2 4 3 17-5 17-5s43-9 50-14c7-5 19-9 23-14 3-5 15-21 17-26 2-5 10-24 12-31 2-7 7-24 12-33 5-8 34-46 45-63l31 5c0 0-4-16-7-21z m125 65c-1 7-12 31-12 31s-10 14-17 18c-7 3-12 12-24 18-12 7-17 11-28 11-10 0-20 14-32 20-12 7-14 4-14 4s14-21 14-26 15-14 31-10c0 0 10-19 15-24s-2-11-12-18c-10-6-8-5-14-10-5-5-22-14-27-17-5-3-26-14-36-3-5 4-4 15-7 22-4 7-40 60-57 84-3 4-10 18-15 21-6 3 12 3 12 3s0 12-2 21c-2 9 2 21 2 21s-18-11-23-14c-5-4-10 7-17 15-7 9-14 19-15 28-2 9 8 12 8 12l16 9c0 0 19 3 31 1 12-1 31-3 31-3s5 12-2 17c-7 5-22 14-29 12-7-2 3 9 12 16l-19 3c0 0-18-9-23-10-5-2-14-5-21-14-7-9 3-21-4-24-7-4-12-5-17-7-5-2-21 0-21 0-18 0-7-16-2-22l-14 17-10 24c0 0-15 10-22 14-6 3-28 15-28 15l2-15 20-21 1 0 13-14-21-1v13c-36 5-18 11-21 12-5 4-18 12-18 12s-20-3-26-5c-5-1-6-7-17-10-10-4-15-9-18-14-4-5-15-20-22-27-7-7-20-6-25-6-5 0-30 7-30 7v30c0 0 4 16 2 21l15 3 25 5 8 5 10 14c0 0-12 8-3 20 4 6 19 7 26 12 7 6 17 9 17 9s12 10 24 22c0 0 9 6 19 9 0 0 29-26 34-26s25 12 25 12 5 16 3 21c-2 5-10 22-10 22s-5-8-11-15c-5-7-8-16-8-16s-24 2-26 7c-2 5-5 14-7 19-2 5-15 5-26 1-10-3 2 19 2 19s10 13 17 13c7 0 23 9 29 11 7 1 28 15 37 15 8 0 18 1 24 1 5 0 25 0 25 0l37-2c0 0 31-14 20-21 0 0 12-9 17-14 5-5 18 4 25 7 129-80 215-224 215-387 0-8-1-17-1-26-4 8-8 19-10 23z" horiz-adv-x="1000" />

<glyph glyph-name="interface-1" unicode="&#xe811;" d="M1000 240c0 89-63 168-156 210 6-20 9-40 9-61 10-5 19-11 27-18 47-36 73-82 73-131 0-48-26-95-73-131-51-40-121-62-195-62-50 0-98 10-140 29-26-5-52-9-80-10 57-43 134-69 220-69 55 0 107 11 152 30l114-59-23 118c45 42 72 95 72 154z m-179 182c-1 21-4 41-9 60-40 143-205 250-401 250-227 0-411-142-411-317 0-76 35-147 94-201l-30-153 149 76c59-24 126-39 198-39 7 0 14 1 21 1 28 1 55 4 81 9 177 35 308 159 308 307 0 2 0 5 0 7z m-604-59c-33 0-60 27-60 60 0 33 27 59 60 59 33 0 60-26 60-59 0-33-27-60-60-60z m194 0c-33 0-60 27-60 60 0 33 27 59 60 59 32 0 59-26 59-59 0-33-27-60-59-60z m193 0c-33 0-60 27-60 60 0 33 27 59 60 59s60-26 60-59c0-33-27-60-60-60z" horiz-adv-x="1000" />

<glyph glyph-name="like" unicode="&#xe812;" d="M957 170c20 26 30 54 29 83-1 32-15 57-27 72 13 34 19 87-27 129-33 30-89 44-168 40-55-3-101-13-103-13h0c-10-2-21-4-33-7 0 13 2 47 27 122 29 89 27 157-6 202-35 48-90 52-106 52-16 0-30-6-41-18-23-27-20-77-17-100-28-74-105-256-171-306-1-1-2-2-3-3-19-20-32-42-41-61-12 6-26 10-41 10h-128c-48 0-87-39-87-87v-340c0-48 39-87 87-87h128c18 0 36 6 50 16l49-6c7-1 141-18 279-15 25-2 48-3 70-3 37 0 70 3 97 9 64 13 108 41 130 80 17 31 17 61 14 81 42 37 49 79 47 108 0 17-4 32-8 42z m-856-255c-17 0-31 13-31 30v340c0 17 14 31 31 31h128c17 0 30-14 30-31v-340c0-17-14-30-30-30h-128v0z m802 280c-8-10-10-24-3-34 0-1 8-15 9-35 2-28-11-52-39-73-10-7-14-20-10-32 0 0 9-28-5-54-14-25-46-43-93-53-38-8-89-10-152-5-1 0-2 0-3 0-135-3-271 15-272 15h0l-21 3c1 6 2 12 2 18v340c0 9-2 18-4 26 3 14 14 45 38 72 94 74 186 325 190 336 2 5 2 10 1 14-3 24-2 52 3 61 11 0 41-3 59-28 21-30 21-82-2-152-36-107-38-163-11-187 14-13 33-13 46-9 13 3 25 6 36 8 1 0 2 0 3 0 64 14 179 23 219-13 34-31 10-72 7-77-7-11-5-27 5-36 1 0 22-21 24-49 0-18-8-38-27-56z" horiz-adv-x="1000" />

<glyph glyph-name="play" unicode="&#xe813;" d="M933 600c-138 239-444 321-683 183-239-138-321-444-183-683 138-239 444-321 683-183 239 138 321 444 183 683z m-233-596c-191-111-436-45-546 146-111 191-45 436 146 546 191 111 436 45 546-146 111-191 45-436-146-546z m-20 366l-262 153c-24 14-43 3-43-25l2-303c0-27 19-39 43-25l260 150c24 14 24 36 0 50z" horiz-adv-x="1000" />

<glyph glyph-name="question-circular-button" unicode="&#xe814;" d="M563 225h-125c0 125 75 163 125 188 18 6 31 12 43 25 7 6 19 18 7 43-13 32-50 63-107 63-87 0-100-75-106-94l-125 19c6 69 63 200 225 200 100 0 188-56 225-138 25-68 13-137-37-187-25-25-50-38-75-44-38-25-50-12-50-75z m-63 563c244 0 438-194 438-438s-194-438-438-438-437 194-437 438 193 438 437 438z m0 62c-275 0-500-225-500-500s225-500 500-500 500 225 500 500-225 500-500 500v0z m-69-687h125v-125h-125v125z" horiz-adv-x="1000" />

<glyph glyph-name="remove" unicode="&#xe815;" d="M946 420h-458-434c-17 0-54-23-54-70s37-70 54-70h434 458c17 0 54 24 54 70s-37 70-54 70z" horiz-adv-x="1000" />

<glyph glyph-name="search" unicode="&#xe816;" d="M968-61l-238 248c61 72 95 164 95 259 0 223-181 404-404 404s-404-181-404-404 181-403 404-403c84 0 163 25 231 73l240-250c10-10 24-16 38-16 14 0 27 5 37 15 21 20 21 53 1 74z m-547 806c165 0 298-134 298-299s-133-298-298-298-298 134-298 298 134 299 298 299z" horiz-adv-x="1000" />

<glyph glyph-name="security" unicode="&#xe817;" d="M889 376c-13 13-29 20-48 20h-23v136c0 87-31 162-94 224-62 63-137 94-224 94-87 0-162-31-224-94-63-62-94-137-94-224v-136h-23c-19 0-35-7-48-20-13-14-20-30-20-49v-409c0-19 7-35 20-48 13-13 29-20 48-20h682c19 0 35 7 48 20 13 13 20 29 20 48v409c0 19-7 35-20 49z m-207 20h-364v136c0 50 18 93 54 128 35 36 78 54 128 54 50 0 93-18 129-54 35-35 53-78 53-128v-136z" horiz-adv-x="1000" />

<glyph glyph-name="shapes" unicode="&#xe818;" d="M998 538c-14 160-128 277-270 277-95 0-182-51-231-133-48 83-131 133-225 133-142 0-256-117-270-277-1-7-6-45 8-106 21-87 69-167 139-231l348-316 354 316c70 64 118 143 139 231 14 61 10 99 8 106z" horiz-adv-x="1000" />

<glyph glyph-name="shapes-1" unicode="&#xe819;" d="M998 538c-14 160-128 277-270 277-95 0-182-51-231-133-48 83-131 133-225 133-142 0-256-117-270-277-1-7-6-45 8-106 21-87 69-167 139-231l348-316 354 316c70 64 118 143 139 231 14 61 10 99 8 106z m-46-97c-18-80-62-153-126-211l-329-293-322 293c-65 58-108 131-127 211-14 58-8 90-8 91l0 2c12 140 110 242 232 242 90 0 170-55 207-144l18-42 18 42c37 88 121 144 213 144 122 0 220-102 232-244 0-1 6-33-8-91z" horiz-adv-x="1000" />

<glyph glyph-name="social" unicode="&#xe81a;" d="M854 704c-95 94-220 146-354 146s-259-52-354-146-146-220-146-354 52-259 146-354 220-146 354-146 259 52 354 146 146 220 146 354-52 259-146 354z m-354-190c-32 0-57-26-57-57 0-15-12-27-26-27s-27 12-27 27c0 60 50 109 110 109 15 0 26-11 26-26 0-14-11-26-26-26z m277-438c-29 105-84 197-184 232 50 30 83 86 83 149 0 97-79 175-176 175s-175-79-175-175c0-63 33-119 82-149-100-35-155-127-184-232-70 71-113 167-113 274 0 215 175 390 390 390 215 0 390-175 390-390 0-107-43-203-113-274z" horiz-adv-x="1000" />

<glyph glyph-name="social-1" unicode="&#xe81b;" d="M636 474c0-74-60-134-134-134s-133 60-133 134 60 133 133 133 134-60 134-133z m-136 376c-276 0-500-224-500-500s224-500 500-500 500 224 500 500-224 500-500 500z m229-826c-17 134-72 272-227 272-156 0-210-140-227-275-105 72-174 193-174 329 0 220 179 399 399 399s399-179 399-399c0-134-67-254-170-326z" horiz-adv-x="1000" />

<glyph glyph-name="square" unicode="&#xe81c;" d="M854 704c-195 195-513 195-708 0-195-195-195-513 0-708 195-195 513-195 708 0 195 195 195 513 0 708z m-55-653c-165-165-433-165-598 0-165 165-165 433 0 598 165 165 433 165 598 0 165-165 165-433 0-598z m-486 434c0 33 27 59 59 59 32 0 58-26 58-59 0-32-26-58-58-58-32 0-59 26-59 58z m266 0c0 33 26 59 58 59 32 0 59-26 59-59 0-32-27-58-59-58s-58 26-58 58z m138-239c-36-84-121-138-216-138-98 0-183 54-218 139-6 14 1 31 15 37 4 1 8 2 11 2 11 0 22-7 26-18 27-63 91-103 166-103 72 0 137 40 164 103 6 15 23 21 37 15s21-23 15-37z" horiz-adv-x="1000" />

<glyph glyph-name="technology" unicode="&#xe81d;" d="M761-41h-217v89c-29-3-59-3-87 0v-89h-218c-60 0-109-49-109-109h740c0 60-49 109-109 109z m-261 348c96 0 174 78 174 173s-78 174-174 174-174-78-174-174 78-173 174-173z m0 217c24 0 44-20 44-44s-20-43-44-43-43 20-43 43 19 44 43 44z m0-413c204 0 370 165 370 369s-166 370-370 370-370-165-370-370 166-369 370-369z m0 609c132 0 239-108 239-240 0-131-107-239-239-239s-239 108-239 239c0 132 107 240 239 240z" horiz-adv-x="1000" />

<glyph glyph-name="volume-off-indicator" unicode="&#xe81e;" d="M749 353c0 99-56 182-138 221v-122l138-138c0 17 0 28 0 39z m138 0c0-50-11-100-28-144l83-83c39 67 55 149 55 232 0 238-165 437-386 487v-116c160-56 276-199 276-376z m-812 497l-72-72 259-259h-259v-332h221l276-276v370l238-238c-39-27-78-49-127-66v-116c77 17 143 50 204 99l110-110 72 72-497 497-425 431z m425-55l-116-116 116-116v232z" horiz-adv-x="1000" />

<glyph glyph-name="approval" unicode="&#xe81f;" d="M914 850h-828c-47 0-86-39-86-86v-828c0-47 39-86 86-86h828c47 0 86 39 86 86v828c0 47-39 86-86 86z m12-914c0-7-5-12-12-12h-828c-7 0-12 5-12 12v828c0 7 5 12 12 12h828c7 0 12-5 12-12v-828z m-158 643c-10 10-26 10-37 0l-305-306-157 159c-11 10-27 10-37 0l-55-55c-10-11-10-27 0-37l230-232c10-10 27-10 37 0l379 379c10 10 10 27 0 37l-55 55z" horiz-adv-x="1000" />

<glyph glyph-name="info-circled" unicode="&#xe820;" d="M454 810q190 2 326-130t140-322q2-190-131-327t-323-141q-190-2-327 131t-139 323q-4 190 130 327t324 139z m52-152q-42 0-65-24t-23-50q-2-28 15-44t49-16q38 0 61 22t23 54q0 58-60 58z m-120-594q30 0 84 26t106 78l-18 24q-48-36-72-36-14 0-4 38l42 160q26 96-22 96-30 0-89-29t-115-75l16-26q52 34 74 34 12 0 0-34l-36-152q-26-104 34-104z" horiz-adv-x="920" />

<glyph glyph-name="check-empty" unicode="&#xe821;" d="M625 707h-464q-37 0-63-26t-27-63v-464q0-37 27-63t63-27h464q37 0 63 27t26 63v464q0 37-26 63t-63 26z m161-89v-464q0-67-47-114t-114-47h-464q-67 0-114 47t-47 114v464q0 66 47 113t114 48h464q66 0 114-48t47-113z" horiz-adv-x="785.7" />

<glyph glyph-name="check" unicode="&#xe822;" d="M786 331v-177q0-67-47-114t-114-47h-464q-67 0-114 47t-47 114v464q0 66 47 113t114 48h464q35 0 65-14 9-4 10-13 2-10-5-16l-27-28q-6-5-13-5-2 0-5 1-13 3-25 3h-464q-37 0-63-26t-27-63v-464q0-37 27-63t63-27h464q37 0 63 27t26 63v141q0 8 5 13l36 35q6 6 13 6 3 0 7-2 11-4 11-16z m129 273l-455-454q-13-14-31-14t-32 14l-240 240q-14 13-14 31t14 32l61 62q14 13 32 13t32-13l147-147 361 361q13 13 31 13t32-13l62-61q13-14 13-32t-13-32z" horiz-adv-x="928.6" />

<glyph glyph-name="money-pig" unicode="&#xe823;" d="M235 826c-129 0-235-105-235-235s105-235 235-235c130 0 235 104 235 235s-105 235-235 235z m67-327c-11-13-24-21-40-26-6-2-9-5-9-13 0-7 0-13 0-20 0-7-3-10-10-10-7 0-15 0-22 0-7 0-10 4-10 10 0 6 0 11 0 16 0 12 0 12-12 13-13 3-27 6-40 12-9 6-10 7-9 19 3 7 4 16 7 23 3 9 5 9 13 5 14-7 29-12 45-13 10-1 20 0 29 4 17 7 20 27 6 39-6 4-11 7-17 10-15 6-31 12-46 20-23 13-38 32-36 61 3 32 20 52 49 63 12 4 12 4 13 16 0 4 0 9 0 13 0 10 2 12 12 12 3 0 6 0 9 0 20 0 20 0 20-20 0-13 0-15 13-17 11-2 21-5 32-9 6-3 7-7 7-12-3-9-6-17-8-27-2-8-5-9-12-5-16 7-32 10-50 9-4 0-10 0-13-3-15-6-17-23-4-33 7-6 14-9 21-12 14-6 26-11 39-19 41-21 51-71 23-106z m460-163h-28l0 0c-18 56-52 105-100 144 0 2 0 3-1 5-10 35 2 67 17 89 9 16-4 36-21 34-42-6-71-20-91-39-13-12-23-27-27-45-29-124-141-216-274-216-65 0-124 20-172 58-17-36-26-75-26-115 0-23 3-43 7-65l0 0c0 0 0 0 0-1 6-21 13-42 24-62 13-29 32-63 59-91 39-40 45-88 46-110v-10 0l0 0 0 0c1-11 10-20 20-20h123c12 0 20 10 20 20v31c19-3 36-3 56-3 15 0 28 0 42 2v-29c0-12 10-20 20-20h123c12 0 20 10 20 20v31c0 10 3 51 42 84 1 1 3 3 4 4l1 0 0 0c43 40 74 86 90 138h26c20 0 36 17 36 37v93c0 20-16 36-36 36z m-154-6c-17 0-30 14-30 30s13 31 30 31c17 0 30-14 30-31 0-16-14-30-30-30z" horiz-adv-x="800" />

<glyph glyph-name="funnel" unicode="&#xe824;" d="M354-108v490l-343 398c-19 22-17 68 31 68h915c44 0 54-41 31-68l-335-387v-304c0-12-4-22-15-31l-214-197c-24-19-70-9-70 31z m-221 873l294-339c6-8 10-17 10-27v-414l133 121v301c0 11 4 19 10 27l285 331-732 0 0 0z" horiz-adv-x="1000" />

<glyph glyph-name="email" unicode="&#xe825;" d="M0 62l0 576q0 1 3 19l339-290-338-325q-4 14-4 20z m45 635q7 3 17 3l913 0q9 0 18-3l-340-291-45-36-89-73-89 73-45 36z m1-694l341 327 132-107 132 107 341-327q-8-3-17-3l-913 0q-8 0-16 3z m650 364l338 290q3-9 3-19l0-576q0-9-3-20z" horiz-adv-x="1037" />

<glyph glyph-name="headphones" unicode="&#xe826;" d="M800 290c0 39-15 77-41 104 0 2-1 2-1 3-11 187-167 336-357 336s-347-149-359-337c0-1-1-1-1-3-26-27-41-63-41-103 0-78 59-142 136-153 9-1 17 7 17 15v273c0 9-9 17-17 15-5 0-12-1-17-3-3-1-6 3-6 7 33 130 149 225 289 225s254-94 286-223c2-3-3-6-6-6-5 1-12 1-17 3-9 1-17-7-17-15v-274c0-9 9-17 17-15l0 0c6 0 12-5 10-12-5-19-13-41-30-59-19-20-44-34-75-41-3 0-6 0-10 3-10 10-26 17-44 17-30 0-56-19-56-43 0-24 26-42 56-42 22 0 42 10 51 26 2 1 3 4 7 4 40 9 72 26 96 53 31 34 40 77 43 102 0 3 1 6 5 9 48 25 82 76 82 134z" horiz-adv-x="800" />

<glyph glyph-name="gift-box" unicode="&#xe827;" d="M444 295c-82 0-325 0-325 0-25 0-46-21-46-47v-351c0-26 21-47 46-47 0 0 248 0 331 0 11 0 11 12 11 12v417c0 0 0 16-17 16z m437 0c0 0-244 0-325 0-19 0-16-21-16-21v-413c0 0-1-11 11-11 83 0 330 0 330 0 26 0 47 21 47 47v351c0 26-21 47-47 47z m-420 276c0 0 0 16-16 16-94 0-379 0-379 0-25 0-46-21-46-47v-146c0-26 21-47 46-47 0 0 286 0 380 0 15 0 15 13 15 13v211l0 0z m473 16c0 0-285 0-380 0-14 0-14-14-14-14v-214c0 0 0-12 17-12 94 0 377 0 377 0 25 0 46 21 46 47v146c0 26-21 47-46 47z m-633 35c-21 0-41 1-58 5-43 8-73 25-91 50-16 23-21 51-15 84 11 57 50 89 109 89 12 0 26-1 40-4 37-7 84-29 126-57 72-48 75-77 72-96-6-26-31-46-77-58-31-9-70-13-106-13z m-55 153c-23 0-31-6-35-28-4-18 1-25 2-27 6-8 22-15 45-20 12-2 27-3 43-3 36 0 68 5 89 11 2 0 4 2 1 4-27 22-77 52-119 60-10 2-19 3-26 3z m454-153c0 0 0 0 0 0-36 0-75 4-106 13-46 12-71 32-77 58-3 19 0 48 72 96 42 28 89 50 126 57 15 3 28 4 41 4 58 0 97-32 108-89 6-33 2-61-15-84-18-25-48-42-91-50-17-4-37-5-58-5z m-90 90c-2-1-1-3 0-4 21-6 53-11 90-11 16 0 31 1 43 3 23 5 39 12 45 20 2 2 6 9 2 27-4 22-12 28-34 28-8 0-17-1-27-3-41-8-91-37-119-60z" horiz-adv-x="1000" />

<glyph glyph-name="map-marker" unicode="&#xe828;" d="M537 17c65-7 153-22 153-53 0-43-205-59-216-59h-151c-17 3-213 17-213 59 0 23 65 40 70 40 31 5 62 9 93 13l-36 46c-75-9-174-31-174-99 0-92 200-98 251-105h169c35 0 254 17 254 105 0 65-91 88-166 97l-34-44z m-59 515c0-49-44-80-80-80-47 0-77 45-77 80 0 43 35 78 77 78 50 0 80-42 80-78z m48 0c0 68-48 125-128 125-72 0-124-52-124-125 0-68 44-127 124-127 68 1 128 48 128 127z m153-11c0-143-193-399-275-514-107 143-206 289-260 429-5 16-14 50-14 54v61c28 161 150 243 275 243 153-1 274-122 274-273z m57 0c0 183-148 329-331 329-146 0-299-94-331-289v-80c0-5 4-16 4-23 26-110 127-280 224-410 32-42 54-98 103-98 12 0 25 2 35 12 80 94 148 202 202 298 26 48 52 94 68 139 28 73 26 68 26 122z" horiz-adv-x="800" />

<glyph glyph-name="reply-arrow" unicode="&#xe829;" d="M513 664v-139c-323-3-473-136-513-520 40 265 190 305 513 307v-139l287 245-287 246z" horiz-adv-x="800" />

<glyph glyph-name="flag" unicode="&#xe82a;" d="M874 616q14 6 22-1t0-19q-96-138-164-213t-110-90-73-2-60 37-63 40-93-4-139-86l90-352-100 0-184 720 92 34q90 66 152 86t98 3 64-51 62-71 79-62 129-20 198 51z" horiz-adv-x="900" />

<glyph glyph-name="camera-outline" unicode="&#xe82b;" d="M885-66l-729 0q-65 0-110 46t-46 110l0 417q0 65 46 110t110 46l83 0 52 52q23 23 58 37t67 15l209 0q33 0 68-15t58-37l52-52 82 0q65 0 111-46t45-110l0-417q0-65-45-110t-111-46z m-729 625q-21 0-37-16t-15-36l0-417q0-21 15-37t37-15l729 0q21 0 37 15t16 37l0 417q0 21-16 36t-37 16l-104 0q-21 0-36 15l-67 68q-22 21-53 21l-209 0q-30 0-51-21l-67-68q-15-15-38-15l-104 0z m365-105q-53 0-92-38t-39-92 39-92 92-38 92 38 38 92-38 92-92 38z m0 53q77 0 129-54t53-129q0-75-54-129t-128-53q-76 0-129 53t-53 129q0 76 53 129t129 54z m313 16q27 0 47-20t20-49-19-48-48-19-49 20-20 47q0 29 20 49t49 20z" horiz-adv-x="1041" />

<glyph glyph-name="upload" unicode="&#xe82c;" d="M500 776l260-244-164 0 0-256-190 0 0 256-166 0z m468-578q18-10 27-32t3-40l-28-154q-4-20-22-33t-40-13l-816 0q-22 0-40 13t-22 33l-28 154q-10 48 32 72l158 108 98 0-170-130 178 0q8 0 12-8l40-110 300 0 40 110q8 8 12 8l178 0-170 130 98 0z" horiz-adv-x="1000" />

<glyph glyph-name="download-1" unicode="&#xe82d;" d="M968 198q18-10 27-32t3-40l-28-154q-4-20-22-33t-40-13l-816 0q-22 0-40 13t-22 33l-28 154q-10 48 32 72l158 108 98 0-170-130 178 0q8 0 12-8l40-110 300 0 40 110q8 8 12 8l178 0-170 130 98 0z m-208 322l-260-244-260 244 166 0 0 256 190 0 0-256 164 0z" horiz-adv-x="1000" />

<glyph glyph-name="money-bag" unicode="&#xe82e;" d="M383 368c-13-4-24-10-31-16-7-7-11-17-11-31 0-13 3-22 10-29 7-7 18-13 33-18v94z m70-253c8 9 13 21 13 34s-4 25-12 33-21 14-39 20v-107c15 4 28 10 38 20z m108 685l0 0c-3 5-11 6-17 4-3-1-6-3-10-4-10-2-20-2-30 0s-17 7-23 14c-4 6-8 10-15 14-7 4-18 4-26 0-10-4-14-12-22-19-8-7-22-7-32-7-10 0-20 2-28 8-10 8-20 24-35 15-6-3-9-9-13-13-6-6-10-10-15-12-6-3-13-3-19-3-8 0-18 3-26 7-4 2-8 2-11 0l0 0c-4-3-7-7-8-11-1-13-1-26 3-30l108-135c4-2 7-3 11-5h91c3 2 6 3 10 5 20 25 108 136 108 136 0 10 0 20 0 30 0 1 0 3-1 6z m-507-805c36-55 96-91 156-111 72-24 148-24 224-24 46 1 93 3 138 14 159 42 236 224 199 376-20 83-67 158-128 218-7 8-14 15-22 21-20 18-41 35-63 51-12 8-24 16-36 23-8 5-28 23-39 23h-168c-122-69-235-170-279-309-24-77-30-169-1-244 4-14 11-26 19-38z m225 176c7 6 14 9 23 9 8 0 14-2 20-5 5-3 8-8 10-15 4-13 8-23 11-30 3-7 8-14 15-19 6-7 16-11 26-14v114c-22 6-40 13-54 20-15 7-27 17-36 31-10 14-14 31-14 53 0 28 8 50 26 68 18 17 44 28 77 31v26c0 14 6 20 16 20s16-6 16-20v-26c18-2 33-6 45-10 13-6 23-14 33-24 7-8 13-17 17-25 4-8 6-17 6-24 0-8-3-15-8-21-6-6-13-8-22-8-16 0-27 8-31 26-5 20-17 34-38 41v-101c20-6 36-11 48-15 11-4 23-11 33-20 10-9 17-20 23-33 5-12 8-26 8-40 0-20-4-36-13-53-8-16-21-30-38-40-17-11-37-17-60-18v-61c0-9-1-16-4-20s-6-7-12-7c-7 0-10 3-13 6-3 3-3 9-3 17v66c-20 2-36 6-50 14-14 6-26 16-36 24-10 11-17 21-21 32-4 10-6 22-6 32-3 5 1 13 6 19z" horiz-adv-x="800" />

<glyph glyph-name="clock-1" unicode="&#xe82f;" d="M736 361c0-13-11-25-25-25-13 0-25 11-25 25 0 14 11 26 25 26 14 0 25-11 25-26m-54 134c-12-7-27-3-34 9-7 12-2 28 10 35 12 7 27 3 34-10 6-12 2-27-10-34m-34-276c7 12 22 16 34 9 12-7 16-22 9-34-7-12-22-16-34-10-12 8-16 23-9 35m-70 399c-8-12-23-16-35-10-12 8-16 23-9 35 8 12 23 16 35 9 12-7 16-22 9-34m-152 54c0-13-12-25-26-25-14 0-26 11-26 25 0 14 12 25 26 25 14 0 26-11 26-25m-159-592c-7-12-22-16-34-9-12 7-16 22-10 34 7 12 23 16 35 10 12-7 16-23 9-35m-9 528c-12-7-27-2-34 10-7 12-3 27 10 34 12 8 27 4 34-8 6-13 2-28-10-36m-114-424c-12-7-27-2-34 10-8 12-3 27 9 34 12 8 27 4 35-8 7-13 3-28-10-36m10 320c-8-12-23-16-35-9-12 7-16 22-9 34 7 12 22 16 34 10 13-7 17-23 10-35m-64-117c14 0 26-11 26-26 0-13-11-25-26-25-13 0-25 11-25 25 0 15 11 26 25 26m285-336c0 13 11 25 26 25 13 0 25-12 25-25 0-14-11-25-25-25-15 0-26 11-26 25m201 209c-5-8-15-11-23-6l-159 92c-1 1-2 1-2 2-4 3-7 8-7 13v242c0 9 7 17 17 17 9 0 16-8 16-17v-232l152-88c8-5 11-15 6-23m-33-145c12 7 27 3 35-10 7-12 3-27-10-34-12-7-27-3-34 9-7 12-3 28 9 35m257 241c0 220-178 399-399 399-221 0-399-179-399-399s178-400 399-400c221 0 399 179 399 400" horiz-adv-x="800" />

<glyph glyph-name="message" unicode="&#xe830;" d="M403 694c-214 0-389-141-389-314 0-103 61-194 157-252-15-35-39-68-72-96-5-5-7-13-4-20 3-5 9-9 15-9 1 0 1 0 2 0 74 9 141 36 194 73 31-5 63-9 96-9 215 0 390 141 390 313 1 174-174 314-389 314z m-201-385c-37 0-66 30-66 66 0 37 30 65 66 65 36 0 65-29 65-65 1-36-29-66-65-66z m208 0c-37 0-66 30-66 66 0 37 30 65 66 65 36 0 65-29 65-65 0-36-29-66-65-66z m206 3c-37 0-66 30-66 66 0 37 30 66 66 66 37 0 66-30 66-66s-29-66-66-66z" horiz-adv-x="800" />

<glyph glyph-name="spin2" unicode="&#xe831;" d="M46 144l0 0c0 0-1 0-1 0-8 18-15 37-21 55-6 19-11 38-15 58-19 99-8 203 35 298 3 6 10 8 15 5 1 0 2 0 2-1l0 0 80-59c5-3 6-9 4-14-5-12-9-25-12-37-4-13-7-26-9-40-11-67-3-137 23-201 2-5 0-10-4-13l0 0-80-56c-5-4-12-2-16 3-1 0-1 1-1 2l0 0z m120 574l0 0c0 1 0 1 0 1 15 13 30 25 46 37 16 11 33 22 51 31 89 50 192 72 297 60 6-1 10-6 10-13 0-1-1-1-1-2l0 0-31-94c-2-5-8-8-13-7-13 0-27 0-40 0-14-1-27-2-40-4-68-11-133-40-186-84-4-3-10-3-14 0l0 0-79 58c-5 3-6 11-2 16 0 0 1 1 2 1l0 0z m588 65l0 0c0 0 1 0 1 0 17-10 34-21 50-32 16-12 31-25 46-38 74-69 127-160 148-262 2-6-2-12-9-13-1 0-1 0-2 0l0 0-100 1c-5 0-10 4-11 9-3 13-8 26-12 38-5 12-10 25-17 36-31 61-78 113-137 150-5 3-6 8-5 13l0 0 31 92c2 6 9 9 15 7 1 0 2-1 2-1l0 0z m244-535l0 0c0 0 0 0 0 0-4-20-9-39-15-57-7-19-14-37-22-55-44-92-114-170-205-221-6-3-13-1-16 4 0 1-1 2-1 2l0 0-30 94c-2 6 1 12 6 14 11 7 22 15 32 23 11 9 21 18 30 27 49 48 84 109 101 176 2 5 6 8 11 8l0 0 98-1c6 0 11-5 11-11 0-1 0-2 0-3l0 0z m-438-395l0 0c0 0 0 0 0 0-20-2-40-3-60-3-20 0-40 1-59 4-102 12-198 54-276 125-5 4-5 11 0 16 0 0 1 1 1 1l0 0 81 58c5 3 12 2 16-2 10-8 20-16 32-23 11-7 22-14 34-20 62-31 131-45 200-41 6 0 10-3 12-8l0 0 29-92c2-6-1-12-7-14-1-1-2-1-3-1l0 0z" horiz-adv-x="1000" />

<glyph glyph-name="spin3" unicode="&#xe832;" d="M494 850c-266 0-483-210-494-472-1-19 13-20 13-20l84 0c16 0 19 10 19 18 10 199 176 358 378 358 107 0 205-45 273-118l-58-57c-11-12-11-27 5-31l247-50c21-5 46 11 37 44l-58 227c-2 9-16 22-29 13l-65-60c-89 91-214 148-352 148z m409-508c-16 0-19-10-19-18-10-199-176-358-377-358-108 0-205 45-274 118l59 57c10 12 10 27-5 31l-248 50c-21 5-46-11-37-44l58-227c2-9 16-22 30-13l64 60c89-91 214-148 353-148 265 0 482 210 493 473 1 18-13 19-13 19l-84 0z" horiz-adv-x="1000" />

<glyph glyph-name="spin4" unicode="&#xe834;" d="M498 850c-114 0-228-39-320-116l0 0c173 140 428 130 588-31 134-134 164-332 89-495-10-29-5-50 12-68 21-20 61-23 84 0 3 3 12 15 15 24 71 180 33 393-112 539-99 98-228 147-356 147z m-409-274c-14 0-29-5-39-16-3-3-13-15-15-24-71-180-34-393 112-539 185-185 479-195 676-31l0 0c-173-140-428-130-589 31-134 134-163 333-89 495 11 29 6 50-12 68-11 11-27 17-44 16z" horiz-adv-x="1001" />

<glyph glyph-name="spin5" unicode="&#xe838;" d="M462 850c-6 0-11-5-11-11l0-183 0 0c0-6 5-11 11-11l69 0c1 0 1 0 1 0 7 0 12 5 12 11l0 183 0 0c0 6-5 11-12 11l-69 0c0 0 0 0-1 0z m250-47c-4 1-8-2-10-5l-91-158 0 0c-4-6-2-13 4-16l60-34c0-1 0-1 0-1 6-3 13-1 16 4l91 158c3 6 2 13-4 16l-61 35c-1 1-3 1-5 1z m-428-2c-2 0-4-1-6-2l-61-35c-5-3-7-10-4-16l91-157c0 0 0 0 0 0 3-6 10-8 16-5l61 35c5 4 7 11 4 16l-91 157c0 1 0 1 0 1-2 4-6 6-10 6z m620-163c-2 0-4 0-6-1l-157-91c0 0 0 0 0 0-6-3-8-10-5-16l35-61c4-5 11-7 16-4l157 91c1 0 1 0 1 0 6 3 7 11 4 16l-35 61c-2 4-6 6-10 5z m-810-4c-5 0-9-2-11-6l-35-61c-3-5-1-12 4-15l158-91 0 0c6-4 13-2 16 4l35 60c0 0 0 0 0 0 3 6 1 13-4 16l-158 91c-2 1-4 2-5 2z m712-235l0 0c-6 0-11-5-11-11l0-69c0-1 0-1 0-1 0-7 5-12 11-12l183 0 0 0c6 0 11 5 11 12l0 69c0 0 0 0 0 1 0 6-5 11-11 11l-183 0z m-794-5l0 0c-7 0-12-5-12-12l0-69c0 0 0 0 0-1 0-6 5-11 12-11l182 0 0 0c6 0 11 5 11 11l0 69c0 1 0 1 0 1 0 7-5 12-11 12l-182 0z m772-153c-4 0-8-2-10-6l-34-60c-1 0-1 0-1 0-3-6-1-13 4-16l158-91c6-3 13-1 16 4l35 61c3 5 1 12-4 15l-158 92 0 0c-2 1-4 1-6 1z m-566-5c-1 0-3 0-5-1l-157-91c0 0-1 0-1 0-5-3-7-10-4-16l35-61c3-5 10-7 16-4l157 91c0 0 0 0 0 0 6 3 8 10 5 16l-35 61c-3 3-7 6-11 5z m468-121c-2 0-4 0-6-1l-61-35c-5-4-7-11-4-16l91-157c0-1 0-1 0-1 3-6 11-7 16-4l61 35c5 3 7 10 4 16l-91 157c0 0 0 0 0 0-2 4-6 6-10 6z m-367-2c-4 0-8-2-10-6l-91-158c-3-6-1-13 4-16l61-35c5-3 12-1 15 4l92 158 0 0c3 6 1 13-5 16l-60 35c0 0 0 0 0 0-2 1-4 1-6 2z m149-58c-7 0-12-5-12-11l0-183 0 0c0-6 5-11 12-11l69 0c0 0 0 0 1 0 6 0 11 5 11 11l0 183 0 0c0 6-5 11-11 11l-69 0c-1 0-1 0-1 0z" horiz-adv-x="1000" />

<glyph glyph-name="spin6" unicode="&#xe839;" d="M855 9c-189-190-520-172-705 13-190 190-200 494-28 695 11 13 21 26 35 34 36 23 85 18 117-13 30-31 35-76 16-112-5-9-9-15-16-22-140-151-145-379-8-516 153-153 407-121 542 34 106 122 142 297 77 451-83 198-305 291-510 222l0 1c236 82 492-24 588-252 71-167 37-355-72-493-11-15-23-29-36-42z" horiz-adv-x="1000" />

<glyph glyph-name="right-open" unicode="&#xe896;" d="M0-2l352 352-352 352 148 148 352-351 148-149-148-148-352-352z" horiz-adv-x="648" />
</font>
</defs>
</svg>
